<?xml version="1.0" encoding="UTF-8" standalone="no"?>
<svg
   xmlns:dc="http://purl.org/dc/elements/1.1/"
   xmlns:cc="http://creativecommons.org/ns#"
   xmlns:rdf="http://www.w3.org/1999/02/22-rdf-syntax-ns#"
   xmlns:svg="http://www.w3.org/2000/svg"
   xmlns="http://www.w3.org/2000/svg"
   xmlns:sodipodi="http://sodipodi.sourceforge.net/DTD/sodipodi-0.dtd"
   xmlns:inkscape="http://www.inkscape.org/namespaces/inkscape"
   width="2048"
   height="2048"
   viewBox="0 0 2048 2048"
   id="svg2"
   version="1.1"
   inkscape:version="0.48.4 r9939"
   sodipodi:docname="icon.svg"
   inkscape:export-filename="D:\Programming\Experiments\ChromeExtensions\ListingDevicesNative\icon16.png"
   inkscape:export-xdpi="0.703125"
   inkscape:export-ydpi="0.703125">
  <metadata
     id="metadata10">
    <rdf:RDF>
      <cc:Work
         rdf:about="">
        <dc:format>image/svg+xml</dc:format>
        <dc:type
           rdf:resource="http://purl.org/dc/dcmitype/StillImage" />
        <dc:title></dc:title>
      </cc:Work>
    </rdf:RDF>
  </metadata>
  <defs
     id="defs8" />
  <sodipodi:namedview
     pagecolor="#ffffff"
     bordercolor="#666666"
     borderopacity="1"
     objecttolerance="10"
     gridtolerance="10"
     guidetolerance="10"
     inkscape:pageopacity="0"
     inkscape:pageshadow="2"
     inkscape:window-width="791"
     inkscape:window-height="815"
     id="namedview6"
     showgrid="false"
     inkscape:zoom="0.11523438"
     inkscape:cx="1024"
     inkscape:cy="1024"
     inkscape:window-x="247"
     inkscape:window-y="456"
     inkscape:window-maximized="0"
     inkscape:current-layer="svg2" />
  <path
     d="M1743 128q70 0 122.5 46.5t52.5 116.5q0 63-45 151-332 629-465 752-97 91-218 91-126 0-216.5-92.5t-90.5-219.5q0-128 92-212l638-579q59-54 130-54zm-909 1034q39 76 106.5 130t150.5 76l1 71q4 213-129.5 347t-348.5 134q-123 0-218-46.5t-152.5-127.5-86.5-183-29-220q7 5 41 30t62 44.5 59 36.5 46 17q41 0 55-37 25-66 57.5-112.5t69.5-76 88-47.5 103-25.5 125-10.5z"
     id="path4"
     style="fill:#4d4d4d" />
</svg>
